<?xml version="1.0" encoding="UTF-8"?>
<svg id="Ebene_2" data-name="Ebene 2" xmlns="http://www.w3.org/2000/svg" viewBox="0 0 1194.22 134.75">
  <defs>
    <style>
      .cls-1 {
        fill: #fff;
      }
    </style>
  </defs>
  <g id="Logo">
    <g id="Logo-2" data-name="Logo">
      <path id="LWINGT" class="cls-1" d="m97.17,47.78s-2.4-13.04-16.82-17.85C65.94,25.13,2.79,4.19.38.42c-2.4-3.78,6.52,23.68,24.71,28.49,18.19,4.8,70.7,20.25,72.07,18.88Z"/>
      <path id="LWINGM" class="cls-1" d="m87.9,66.65l4.46-11.33S30.93,39.2,17.2,31.99c0,0,5.15,17.85,23.68,22.31,18.53,4.46,47.02,12.36,47.02,12.36Z"/>
      <path id="LWINGB" class="cls-1" d="m85.5,72.49s-44.96-10.98-53.88-15.1c0,0,5.83,17.16,28.83,18.88l22.31,3.09,2.75-6.86Z"/>
      <path id="RWINGT" class="cls-1" d="m261.19,28.84c18.19-4.8,27.11-32.26,24.71-28.49-2.4,3.78-65.55,24.71-79.97,29.52-14.41,4.8-16.82,17.85-16.82,17.85,1.37,1.37,53.88-14.07,72.07-18.88Z"/>
      <path id="RWINGM" class="cls-1" d="m269.08,31.93c-13.73,7.21-75.16,23.34-75.16,23.34l4.46,11.33s28.49-7.89,47.02-12.36c18.53-4.46,23.68-22.31,23.68-22.31Z"/>
      <path id="RWINGB" class="cls-1" d="m203.53,79.29l22.31-3.09c22.99-1.72,28.83-18.88,28.83-18.88-8.92,4.12-53.88,15.1-53.88,15.1l2.75,6.86Z"/>
      <path id="A" class="cls-1" d="m169.35,13.86c-.4-.97-1.35-1.61-2.4-1.61h-46.56c-1.05,0-2,.63-2.4,1.61l-48.22,117.32c-.7,1.71.55,3.58,2.4,3.58h31.95c1.05,0,2-.63,2.4-1.61l34.75-84.54c.88-2.14,3.91-2.14,4.8,0l15.55,37.84h-5.29c-15.18,0-27.48,12.3-27.48,27.48h0s44.07,0,44.07,0l7.9,19.22c.4.97,1.35,1.61,2.4,1.61h31.95c1.84,0,3.1-1.87,2.4-3.58L169.35,13.86Z"/>
      <g id="S">
        <path class="cls-1" d="m318.85,59.51h-56.69c-1.58,0-2.86-.13-3.88-.42-1.21,3.07-8.64,19.15-31.72,21.07,4.73,4.31,11.91,6.29,21.95,6.29h56.69c5.77,0,7.52,1.75,7.52,6.13v7.87c0,4.38-1.75,6.12-7.52,6.12h-47.59c-4.03,0-5.6-1.74-5.6-5.42v-1.05c0-2.45-1.58-3.85-4.03-3.85h-26.24c-2.63,0-4.03,1.4-4.03,3.85v7.17c0,20.65,7,27.48,28.52,27.48h72.62c20.64,0,29.22-8.4,29.22-28v-19.25c0-19.59-8.58-27.99-29.22-27.99Z"/>
        <path class="cls-1" d="m311.32,45.86v1.05c0,2.45,1.4,3.85,4.03,3.85h26.24c2.63,0,4.03-1.4,4.03-3.85v-7.18c0-20.64-7.18-27.47-28.52-27.47h-31.65c-2.5,4.38-5.96,9.17-10.3,13.1l-2.22,7.68c-.09.32-1.02,3.42-3.32,7.39h35.94c4.2,0,5.77,1.75,5.77,5.43Z"/>
      </g>
      <path id="C" class="cls-1" d="m456.37,12.27h-68.76c-20.3,0-29.4,8.4-29.4,28v66.49c0,19.6,9.1,28,29.4,28h68.76c21.52,0,28.7-6.82,28.7-27.47v-11.55c0-2.45-1.4-3.85-4.02-3.85h-26.25c-2.62,0-4.02,1.4-4.02,3.85v5.42c0,3.67-1.75,5.42-5.77,5.42h-37.97c-11.37,0-13.47-1.75-13.47-11.2v-43.74c0-9.45,2.1-11.2,13.47-11.2h37.97c4.02,0,5.77,1.75,5.77,5.42v5.42c0,2.45,1.4,3.85,4.02,3.85h26.25c2.62,0,4.02-1.4,4.02-3.85v-11.55c0-20.65-7.17-27.47-28.7-27.47Z"/>
      <path id="E" class="cls-1" d="m616.82,12.27h-114.96c-2.62,0-4.02,1.4-4.02,3.85v114.78c0,2.45,1.4,3.85,4.02,3.85h114.96c2.62,0,4.02-1.4,4.02-3.85v-20.47c0-2.45-1.4-3.85-4.02-3.85h-83.64v-20.12h69.99c2.45,0,4.02-1.4,4.02-3.85v-19.25c0-2.45-1.57-3.85-4.02-3.85h-69.99v-19.07h83.64c2.62,0,4.02-1.4,4.02-3.85v-20.47c0-2.45-1.4-3.85-4.02-3.85Z"/>
      <path id="N" class="cls-1" d="m763.97,12.27h-24.32c-2.62,0-4.2,1.4-4.2,3.85v90.81l-45.84-91.51c-1.05-2.27-2.8-3.15-5.6-3.15h-46.02c-2.62,0-4.02,1.4-4.02,3.85v114.78c0,2.45,1.4,3.85,4.02,3.85h24.5c2.45,0,4.02-1.4,4.02-3.85V40.26l45.84,91.34c1.05,2.27,2.8,3.15,5.6,3.15h46.02c2.62,0,4.02-1.4,4.02-3.85V16.12c0-2.45-1.4-3.85-4.02-3.85Z"/>
      <path id="D" class="cls-1" d="m875.6,12.27h-86.79c-2.62,0-4.02,1.4-4.02,3.85v114.78c0,2.45,1.4,3.85,4.02,3.85h86.79c24.32,0,38.67-13.47,38.67-36.92v-48.64c0-23.45-14.35-36.92-38.67-36.92Zm3.32,80.84c0,9.97-4.37,13.47-16.1,13.47h-42.69V40.44h42.69c11.72,0,16.1,3.67,16.1,13.47v39.19Z"/>
      <path id="E-2" data-name="E" class="cls-1" d="m1047.25,12.27h-114.96c-2.62,0-4.02,1.4-4.02,3.85v114.78c0,2.45,1.4,3.85,4.02,3.85h114.96c2.62,0,4.02-1.4,4.02-3.85v-20.47c0-2.45-1.4-3.85-4.02-3.85h-83.64v-20.12h69.99c2.45,0,4.02-1.4,4.02-3.85v-19.25c0-2.45-1.57-3.85-4.02-3.85h-69.99v-19.07h83.64c2.62,0,4.02-1.4,4.02-3.85v-20.47c0-2.45-1.4-3.85-4.02-3.85Z"/>
      <path id="D-2" data-name="D" class="cls-1" d="m1155.56,12.27h-86.79c-2.62,0-4.02,1.4-4.02,3.85v114.78c0,2.45,1.4,3.85,4.02,3.85h86.79c24.32,0,38.67-13.47,38.67-36.92v-48.64c0-23.45-14.35-36.92-38.67-36.92Zm3.32,80.84c0,9.97-4.37,13.47-16.1,13.47h-42.69V40.44h42.69c11.72,0,16.1,3.67,16.1,13.47v39.19Z"/>
    </g>
  </g>
</svg>